<svg xmlns="http://www.w3.org/2000/svg" width="16" height="17" viewBox="0 0 16 17">
  <defs>
    <style>
      .cls-1 {
        fill: #8dc63f;
        fill-rule: evenodd;
      }
    </style>
  </defs>
  <path id="icon-flag" class="cls-1" d="M323.8,78.861a5.991,5.991,0,0,0,3.2-1.214v9.889a5.991,5.991,0,0,1-3.2,1.214,5.873,5.873,0,0,1-3.2-.9,5.877,5.877,0,0,0-3.2-.9,5.966,5.966,0,0,0-3.2,1.169V78.231a5.966,5.966,0,0,1,3.2-1.169,5.876,5.876,0,0,1,3.2.9A5.873,5.873,0,0,0,323.8,78.861ZM312.067,76a1.064,1.064,0,0,1,1.066,1.063V93H311V77.063A1.064,1.064,0,0,1,312.067,76Z" transform="translate(-311 -76)"/>
</svg>
