<svg width="19" height="12" viewBox="0 0 19 12" fill="none" xmlns="http://www.w3.org/2000/svg">
<path d="M9 0C4.10785 0 0.346368 4.97815 0.183933 5.22339C-0.0613111 5.54826 -0.0613111 5.86676 0.183933 6.19163C0.346368 6.43687 4.10785 11.415 9 11.415C13.8922 11.415 17.6536 6.43687 17.8161 6.19163C18.0613 5.86676 18.0613 5.54826 17.8161 5.22339C17.6536 4.97815 13.8922 0 9 0ZM9 1.63072C11.2836 1.63072 13.0768 3.42387 13.0768 5.70751C13.0768 7.99115 11.2836 9.7843 9 9.7843C6.71636 9.7843 4.92321 7.99115 4.92321 5.70751C4.92321 3.42387 6.71636 1.63072 9 1.63072ZM9 3.66911C7.8757 3.66911 6.9616 4.58321 6.9616 5.70751C6.9616 6.83181 7.8757 7.74591 9 7.74591C10.1243 7.74591 11.0384 6.83181 11.0384 5.70751C11.0384 4.58321 10.1243 3.66911 9 3.66911Z" transform="translate(0.25 0.25)" fill="#313C40"/>
</svg>
