<svg xmlns="http://www.w3.org/2000/svg" width="12" height="16" viewBox="0 0 12 16">
  <defs>
    <style>
      .cls-1 {
        fill: #ffffff;
        fill-rule: evenodd;
      }
    </style>
  </defs>
  <path id="icon-lock" class="cls-1" d="M1460.5,148h-9a1.513,1.513,0,0,1-1.5-1.524v-7.619a1.513,1.513,0,0,1,1.5-1.524h0.75v-1.524a3.75,3.75,0,1,1,7.5,0v1.524h0.75a1.52,1.52,0,0,1,1.5,1.524v7.619A1.52,1.52,0,0,1,1460.5,148Zm-2.18-12.191a2.325,2.325,0,1,0-4.65,0h0.08v1.524h4.57v-1.524Zm2.18,3.048h-9v7.619h9v-7.619Zm-4.5,2.286a1.524,1.524,0,1,1-1.5,1.524A1.52,1.52,0,0,1,1456,141.143Z" transform="translate(-1450 -132)"/>
</svg>
