<svg width="6" height="18" viewBox="0 0 6 18" fill="none" xmlns="http://www.w3.org/2000/svg">
<path d="M2.24957 4.5C3.48684 4.5 4.49915 3.4875 4.49915 2.25C4.49915 1.0125 3.48684 0 2.24957 0C1.01231 0 0 1.0125 0 2.25C0 3.4875 1.01231 4.5 2.24957 4.5ZM2.24957 6.75C1.01231 6.75 0 7.7625 0 9C0 10.2375 1.01231 11.25 2.24957 11.25C3.48684 11.25 4.49915 10.2375 4.49915 9C4.49915 7.7625 3.48684 6.75 2.24957 6.75ZM2.24957 13.5C1.01231 13.5 0 14.5125 0 15.75C0 16.9875 1.01231 18 2.24957 18C3.48684 18 4.49915 16.9875 4.49915 15.75C4.49915 14.5125 3.48684 13.5 2.24957 13.5Z" transform="translate(0.75)" fill="#C2C2C2"/>
</svg>
