<svg width="18" height="18" viewBox="0 0 18 18" fill="none" xmlns="http://www.w3.org/2000/svg">
<path fill-rule="evenodd" clip-rule="evenodd" d="M0 8.1C0 8.59765 0.202235 9.04659 0.527294 9.37271V9.37376L8.63047 17.4727C8.95553 17.7978 9.40553 18 9.90318 18C10.4008 18 10.8498 17.7978 11.1759 17.4738L17.4706 11.178C17.7978 10.8519 18 10.4008 18 9.90318C18 9.40659 17.7988 8.95659 17.4727 8.63047L9.37271 0.527294C9.04553 0.202235 8.59659 0 8.1 0H0V8.1ZM3.15 4.5C2.40459 4.5 1.8 3.89541 1.8 3.15C1.8 2.40459 2.40459 1.8 3.15 1.8C3.89541 1.8 4.5 2.40459 4.5 3.15C4.5 3.89541 3.89541 4.5 3.15 4.5Z" fill="#313C40"/>
</svg>
