<svg width="16" height="16" viewBox="0 0 16 16" version="1.1" xmlns="http://www.w3.org/2000/svg" xmlns:xlink="http://www.w3.org/1999/xlink">
<title>icon-attachment</title>
<desc>Created using Figma</desc>
<g id="Canvas" transform="translate(-106 1650)">
<g id="icon-attachment">
<g id="Vector">
<use xlink:href="#path0_fill" transform="translate(111 -1648)" fill="#FFFFFF"/>
</g>
</g>
</g>
<defs>
<path id="path0_fill" fill-rule="evenodd" d="M 5.18175 2.727L 5.18175 9C 5.18175 10.2045 4.20525 11.1818 3 11.1818C 1.79475 11.1818 0.81825 10.2052 0.81825 9L 0.81825 2.18175C 0.81825 1.42875 1.428 0.81825 2.18175 0.81825C 2.9355 0.81825 3.54525 1.428 3.54525 2.18175L 3.54525 7.9095C 3.54525 8.21025 3.3015 8.45475 3 8.45475C 2.69775 8.45475 2.454 8.21025 2.454 7.9095L 2.454 2.727L 1.63575 2.727L 1.63575 7.9095C 1.63575 8.6625 2.247 9.27225 3 9.27225C 3.753 9.27225 4.3635 8.6625 4.3635 7.9095L 4.3635 2.18175C 4.3635 0.97725 3.387 0 2.18175 0C 0.97725 0 0 0.97725 0 2.18175L 0 9C 0 10.6575 1.34325 12 3 12C 4.656 12 6 10.6575 6 9L 6 2.727L 5.18175 2.727Z"/>
</defs>
</svg>
