<svg width="32" height="32" viewBox="0 0 32 32" version="1.1" xmlns="http://www.w3.org/2000/svg" xmlns:xlink="http://www.w3.org/1999/xlink">
<title>icon-file-size</title>
<desc>Created using Figma</desc>
<g id="Canvas" transform="translate(237 -20)">
<g id="icon-file-size">
<g id="surface1">
<g id="Vector">
<use xlink:href="#path0_fill" transform="translate(-233 24)"/>
</g>
</g>
</g>
</g>
<defs>
<path id="path0_fill" d="M 1.10194 0.000558933C 1.06031 0.0109676 1.01868 0.0265785 0.977046 0.0421907C 0.935415 0.0525994 0.893783 0.0682103 0.852151 0.0838226C 0.810519 0.0942312 0.768887 0.109842 0.727256 0.125454C 0.711643 0.141067 0.701236 0.151474 0.685624 0.167086C 0.659604 0.177495 0.62838 0.193106 0.60236 0.208718C 0.586748 0.22433 0.576341 0.234738 0.560728 0.25035C 0.534709 0.260758 0.503484 0.276369 0.477465 0.291982C 0.477465 0.307594 0.477465 0.318001 0.477465 0.333613C 0.451445 0.344022 0.420221 0.359633 0.394201 0.375245C 0.378589 0.390858 0.368181 0.401265 0.352569 0.416877C 0.336957 0.432489 0.32655 0.442897 0.310937 0.458509C 0.295325 0.484528 0.279714 0.515753 0.269306 0.541773C 0.253693 0.557385 0.243286 0.567792 0.227674 0.583404C 0.227674 0.599017 0.227674 0.609424 0.227674 0.625036C 0.196451 0.651056 0.17043 0.677077 0.14441 0.7083C 0.14441 0.723912 0.14441 0.734319 0.14441 0.749932C 0.128798 0.765544 0.118391 0.775951 0.102778 0.791563C 0.102778 0.817583 0.102778 0.848808 0.102778 0.874827C 0.087166 0.890439 0.0767587 0.900847 0.0611465 0.916459C 0.0611465 0.942478 0.0611465 0.973703 0.0611465 0.999723C 0.0455342 1.01533 0.0351269 1.02574 0.0195147 1.04135C 0.0195147 1.06737 0.0195147 1.0986 0.0195147 1.12462C -0.00650489 1.27553 -0.00650489 1.43165 0.0195147 1.58257L 0.0195147 17.3194C 0.00910738 17.6733 0.14441 18.0219 0.394201 18.2769L 5.72307 23.6058C 5.73869 23.6058 5.74909 23.6058 5.76471 23.6058C 5.77511 23.6318 5.79072 23.663 5.80634 23.6891C 5.82195 23.6891 5.83236 23.6891 5.84797 23.6891C 5.87399 23.7203 5.90001 23.7463 5.93123 23.7723C 5.94685 23.7723 5.95725 23.7723 5.97286 23.7723C 6.0249 23.8192 6.08215 23.8608 6.13939 23.8972C 6.155 23.8972 6.16541 23.8972 6.18102 23.8972C 6.20704 23.9128 6.23827 23.9284 6.26429 23.9389C 6.2799 23.9389 6.29031 23.9389 6.30592 23.9389C 6.34755 23.9545 6.38918 23.9701 6.43081 23.9805C 6.44643 23.9805 6.45683 23.9805 6.47245 23.9805C 6.62336 24.0065 6.77948 24.0065 6.9304 23.9805L 22.6672 23.9805C 23.401 23.9805 23.9994 23.382 23.9994 22.6483L 23.9994 6.91144C 24.0359 6.70328 24.0203 6.48992 23.9578 6.28696C 23.9578 6.27135 23.9578 6.26094 23.9578 6.24533C 23.8954 6.0736 23.7965 5.91748 23.6664 5.78738C 23.656 5.76136 23.6404 5.73014 23.6248 5.70412L 23.5831 5.70412C 23.5571 5.67289 23.5311 5.64687 23.4999 5.62085L 18.2959 0.375245C 18.0409 0.125454 17.6922 -0.00984835 17.3384 0.000558933L 1.35173 0.000558933C 1.3101 0.000558933 1.26847 0.000558933 1.22684 0.000558933C 1.18521 0.000558933 1.14357 0.000558933 1.10194 0.000558933ZM 4.59901 2.665L 16.7555 2.665L 19.4199 5.32943L 7.26345 5.32943L 4.59901 2.665ZM 2.68395 4.58006L 5.34839 7.24449L 5.34839 19.401L 2.68395 16.7365L 2.68395 4.58006Z"/>
</defs>
</svg>
