<?xml version="1.0" encoding="utf-8"?>
<!-- Generator: Adobe Illustrator 19.2.1, SVG Export Plug-In . SVG Version: 6.00 Build 0)  -->
<svg version="1.1" id="Layer_1" xmlns="http://www.w3.org/2000/svg" xmlns:xlink="http://www.w3.org/1999/xlink" x="0px" y="0px"
	 viewBox="0 0 27 23" style="enable-background:new 0 0 27 23;" xml:space="preserve">
<path id="icon-project" d="M24.5,3.7h-5c0-3.4-2.8-3.7-5.4-3.7S8.6,0.3,8.6,3.7H2.7C1.3,3.7,0,5.4,0,6.9v14.1C0,22.4,1.3,23,2.7,23
	h21.8c1.4,0,2.5-0.6,2.5-2.1V6.9C27,5.4,26,3.7,24.5,3.7L24.5,3.7L24.5,3.7z M10.8,3.7c0-0.6,0-1.5,3.3-1.5s3.3,1,3.3,1.5H10.8z"/>
</svg>
