<svg xmlns="http://www.w3.org/2000/svg" width="18" height="18" viewBox="0 0">
  <path fill="#f69679" fill-rule="evenodd" clip-rule="evenodd" d="M14.3029 3.0293C15.5333 2.93941 16.7108 2.49271 17.6912 1.74389V12.2146C16.7108 12.9634 15.5333 13.4101 14.3029 13.5C13.1053 13.5153 11.9288 13.1844 10.9147 12.5471C9.90054 11.91 8.72405 11.5791 7.52646 11.5941C6.30075 11.6686 5.12335 12.0987 4.13825 12.8319V2.36224C5.12335 1.6291 6.30075 1.19896 7.52646 1.12447C8.72405 1.10937 9.90056 1.44027 10.9147 2.07741C11.9289 2.71436 13.1054 3.04489 14.3029 3.0293ZM1.87975 4.4799e-06C2.02778 -0.000273846 2.17443 0.0286261 2.31129 0.0850516C2.44815 0.141477 2.57257 0.224322 2.67739 0.328851C2.78221 0.43338 2.86541 0.557543 2.92222 0.694243C2.97903 0.830943 3.00833 0.977502 3.00847 1.12554V18H0.75V1.12554C0.750139 0.977413 0.779495 0.83077 0.836372 0.694001C0.893249 0.557232 0.976528 0.433014 1.08146 0.328471C1.1864 0.223929 1.31094 0.141108 1.44792 0.0847446C1.5849 0.0283815 1.73163 -0.000413228 1.87975 4.4799e-06Z" />
</svg>
