<svg xmlns="http://www.w3.org/2000/svg" width="23.22" height="12.75" viewBox="0 0 23.22 12.75">
  <defs>
    <style>
      .cls-1 {
        fill: #fff;
        fill-rule: evenodd;
      }
    </style>
  </defs>
  <path id="icon-group" class="cls-1" d="M1041.91,935.582l-0.03-.062a6.993,6.993,0,0,0-3.43-3.1,5.7,5.7,0,0,1,2.99-.772h0a5.02,5.02,0,0,1,4.75,2.619v1.311h-4.28Zm-0.47-5.9a2.462,2.462,0,1,1,2.64-2.456A2.558,2.558,0,0,1,1041.44,929.686Zm-6.86.983a2.955,2.955,0,1,1,3.17-2.947A3.065,3.065,0,0,1,1034.58,930.669Zm-7.3,4.851-0.03.062h-4.28v-1.311a5.02,5.02,0,0,1,4.75-2.619h0a5.7,5.7,0,0,1,2.99.772A6.993,6.993,0,0,0,1027.28,935.52Zm0.44-5.834a2.462,2.462,0,1,1,2.64-2.456A2.551,2.551,0,0,1,1027.72,929.686Zm6.86,2.948c4.81,0,6.34,3.276,6.34,3.275v1.637h-12.67v-1.637S1029.77,932.634,1034.58,932.634Z" transform="translate(-1022.97 -924.781)"/>
</svg>
