<svg width="32" height="32" viewBox="0 0 32 32" version="1.1" xmlns="http://www.w3.org/2000/svg" xmlns:xlink="http://www.w3.org/1999/xlink">
<title>icon-view</title>
<desc>Created using Figma</desc>
<g id="Canvas" transform="translate(-2657 -566)">
<g id="icon-view">
<g id="icon view">
<use xlink:href="#path0_fill" transform="translate(2661 570)" fill="#FFFFFF"/>
</g>
</g>
</g>
<defs>
<path id="path0_fill" fill-rule="evenodd" d="M 16.0457 15.0857L 17.1429 15.0857L 24 21.9428L 21.9429 24L 15.0858 17.1429L 15.0858 16.0457L 14.6744 15.6343C 13.0923 17.0536 11.0397 17.8356 8.9142 17.8286C 7.15113 17.8286 5.42772 17.3057 3.96178 16.3262C 2.49583 15.3467 1.35335 13.9545 0.678645 12.3256C 0.00394397 10.6967 -0.172569 8.90443 0.171391 7.17523C 0.51535 5.44602 1.3643 3.85767 2.61098 2.61098C 3.85767 1.3643 5.44602 0.515246 7.17523 0.171286C 8.90443 -0.172674 10.6967 0.00383934 12.3256 0.67854C 13.9545 1.35324 15.3468 2.49583 16.3263 3.96178C 17.3058 5.42772 17.8286 7.15123 17.8286 8.91431C 17.8356 11.0398 17.0536 13.0922 15.6343 14.6743L 16.0457 15.0857ZM 8.9142 2.74282C 7.69361 2.74282 6.50052 3.10484 5.48563 3.78296C 4.47075 4.46109 3.67972 5.42488 3.21262 6.55256C 2.74551 7.68024 2.62335 8.92117 2.86147 10.1183C 3.0996 11.3154 3.68735 12.4151 4.55044 13.2782C 5.41353 14.1413 6.51317 14.729 7.71031 14.9671C 8.90745 15.2053 10.1483 15.083 11.276 14.6159C 12.4036 14.1488 13.3674 13.3579 14.0456 12.343C 14.7237 11.3281 15.0858 10.1349 15.0858 8.91431C 15.0892 8.10291 14.9318 7.29888 14.6229 6.54859C 14.314 5.7983 13.8595 5.11655 13.2857 4.5428C 12.712 3.96905 12.0302 3.51465 11.2799 3.20571C 10.5296 2.89677 9.7256 2.73942 8.9142 2.74282Z"/>
</defs>
</svg>
